<svg width="64" height="64" viewBox="0 0 64 64" fill="none" xmlns="http://www.w3.org/2000/svg">
<path d="M31.6 33C33.6273 33 35.3877 32.2665 36.8271 30.8271C38.2665 29.3877 39 27.6273 39 25.6C39 23.5727 38.2665 21.8123 36.8271 20.3729C35.3877 18.9335 33.6273 18.2 31.6 18.2C29.5727 18.2 27.8123 18.9335 26.3729 20.3729C24.9335 21.8123 24.2 23.5727 24.2 25.6C24.2 27.6273 24.9335 29.3877 26.3729 30.8271C27.8123 32.2665 29.5727 33 31.6 33ZM31.6 62.6844C23.3789 55.6231 17.2532 49.0876 13.1882 43.0796C9.01519 36.9119 7 31.3061 7 26.24C7 18.4754 9.48673 12.3846 14.398 7.85509C19.3668 3.27243 25.0871 1 31.6 1C38.1129 1 43.8332 3.27243 48.802 7.85509C53.7133 12.3846 56.2 18.4754 56.2 26.24C56.2 31.3061 54.1848 36.9119 50.0118 43.0796C45.9468 49.0876 39.8211 55.6231 31.6 62.6844Z" fill="#EF3C3C" stroke="white" stroke-width="2"/>
<rect x="24" y="18" width="15" height="15" rx="7.5" fill="white"/>
</svg>
